<svg width="16" height="17" viewBox="0 0 16 17" fill="none" xmlns="http://www.w3.org/2000/svg">
<path fill-rule="evenodd" clip-rule="evenodd" d="M8 16.2678C12.4183 16.2678 16 12.6861 16 8.26782C16 3.84954 12.4183 0.267822 8 0.267822C3.58172 0.267822 0 3.84954 0 8.26782C0 12.6861 3.58172 16.2678 8 16.2678Z" fill="#9D5CD0"/>
<path d="M7.26154 6.72292H8.73846V13.2678H7.26154V6.72292ZM8 5.17041C7.71282 5.17041 7.4718 5.07909 7.27692 4.89644C7.09231 4.71379 7 4.49055 7 4.22673C7 3.9629 7.09231 3.73966 7.27692 3.55702C7.4718 3.36422 7.71282 3.26782 8 3.26782C8.28718 3.26782 8.52308 3.35915 8.70769 3.54179C8.90256 3.7143 9 3.93246 9 4.19628C9 4.47026 8.90256 4.70364 8.70769 4.89644C8.52308 5.07909 8.28718 5.17041 8 5.17041Z" fill="white"/>
</svg>
